#!OML:ASF H:\Terrain\Patient Classification 1\Takeo\Monday\TakeoMonday.ASF
:FULLY-SPECIFIED
:DEGREES
1126
root 10.8442 17.2807 -3.97582 21.8909 -51.6283 -16.622
lowerback 16.1362 1.65032 -2.16164
upperback 7.86749 1.40502 -4.96992
thorax -0.595593 0.601396 -4.24253
lowerneck -12.6481 9.69045 2.74157
upperneck -1.15847 12.5988 -3.05958
head 2.16443 6.20036 -0.68876
rclavicle 1.59028e-014 6.67916e-014
rhumerus 25.2099 53.0487 -83.1867
rradius 38.3921
rwrist -10.7739
rhand -35.3138 11.9796
rfingers 7.12502
rthumb -8.44765 -17.8314
lclavicle 1.59028e-014 6.67916e-014
lhumerus 16.6573 -0.525709 87.7316
lradius 54.3418
lwrist 70.5974
lhand -30.3269 23.4478
lfingers 7.12502
lthumb -3.6331 53.3966
rfemur -22.7533 10.0282 28.7269
rtibia 30.1134
rfoot -12.756 -5.74899
rtoes -11.9658
lfemur -35.6327 21.121 -4.0773
ltibia 40.8102
lfoot -7.22486 17.9275
ltoes -1.28617
1127
root 10.8654 17.2725 -3.97827 23.4194 -52.1592 -18.111
lowerback 16.1656 1.381 -1.95936
upperback 8.0978 1.07071 -5.12645
thorax -0.377153 0.43823 -4.46918
lowerneck -12.4218 10.2166 2.88075
upperneck -1.50177 13.2913 -3.33189
head 2.05781 6.54504 -0.769787
rclavicle 6.67916e-014 -2.8625e-014
rhumerus 24.3169 52.9152 -83.6773
rradius 38.4138
rwrist -10.5371
rhand -35.3208 11.6791
rfingers 7.12502
rthumb -8.4544 -18.1317
lclavicle 6.67916e-014 -2.8625e-014
lhumerus 16.524 -0.600033 88.0308
lradius 53.1567
lwrist 71.3936
lhand -30.1842 23.3309
lfingers 7.12502
lthumb -3.49531 53.282
rfemur -22.994 10.1353 29.4723
rtibia 29.8385
rfoot -12.589 -5.04375
rtoes -10.9609
lfemur -35.9406 21.9567 -3.36005
ltibia 41.3026
lfoot -7.67243 17.9007
ltoes -0.0636811
1128
root 10.8921 17.2595 -3.97731 24.6707 -52.5113 -19.2653
lowerback 16.336 1.11049 -1.82389
upperback 8.31612 0.71855 -5.26351
thorax -0.251338 0.264314 -4.63898
lowerneck -12.1587 10.4851 2.83653
upperneck -1.93399 13.6637 -3.63861
head 1.898 6.73102 -0.859994
rclavicle 2.06736e-014 3.49861e-014
rhumerus 23.7823 52.9996 -83.4892
rradius 38.4758
rwrist -10.8769
rhand -35.4942 10.6977
rfingers 7.12502
rthumb -8.62167 -19.1063
lclavicle 2.06736e-014 3.49861e-014
lhumerus 16.4145 -0.885576 88.4889
lradius 52.1418
lwrist 71.9585
lhand -30.2964 24.0261
lfingers 7.12502
lthumb -3.60372 53.9754
rfemur -23.2929 10.23 29.9696
rtibia 29.6113
rfoot -12.3738 -4.50294
rtoes -10.3586
lfemur -36.3498 22.1644 -2.74106
ltibia 41.7129
lfoot -7.91082 18.2388
ltoes 1.13036
1129
root 10.9294 17.2606 -3.97021 25.2327 -53.2835 -19.3442
lowerback 16.5494 0.937355 -2.46373
upperback 8.37937 0.366199 -5.603
thorax -0.319442 0.0691892 -4.5845
lowerneck -11.9225 10.7169 3.01642
upperneck -2.20365 13.962 -4.08895
head 1.82798 6.8741 -1.02681
rclavicle -6.99722e-014 -1.90833e-014
rhumerus 23.1954 53.2302 -83.1345
rradius 38.7482
rwrist -11.5072
rhand -35.5009 9.58919
rfingers 7.12502
rthumb -8.6282 -20.2145
lclavicle -6.99722e-014 -1.90833e-014
lhumerus 16.1328 -1.53813 88.7129
lradius 51.4166
lwrist 73.1307
lhand -31.0524 23.5858
lfingers 7.12502
lthumb -4.33371 53.5215
rfemur -23.8453 10.1696 29.6131
rtibia 29.4431
rfoot -12.085 -3.72188
rtoes -10.6772
lfemur -36.882 22.3775 -3.0884
ltibia 42.0263
lfoot -7.81205 18.8304
ltoes 0.102683
1130
root 10.9554 17.2716 -3.97138 25.6906 -54.3529 -19.3958
lowerback 16.7425 0.838308 -3.31653
upperback 8.44616 0.066482 -6.08699
thorax -0.364283 -0.105854 -4.57222
lowerneck -11.7026 11.0544 3.06518
upperneck -2.4986 14.4101 -4.22537
head 1.72072 7.10237 -1.06825
rclavicle 1.11319e-014 -3.18055e-015
rhumerus 22.2757 53.2036 -83.4779
rradius 38.8113
rwrist -11.6317
rhand -35.3147 9.53995
rfingers 7.12502
rthumb -8.44849 -20.2711
lclavicle 1.11319e-014 -3.18055e-015
lhumerus 15.8842 -1.85406 88.8268
lradius 50.1618
lwrist 73.6895
lhand -29.7477 21.8088
lfingers 7.12502
lthumb -3.07382 51.7664
rfemur -24.2506 10.1292 29.2407
rtibia 29.3338
rfoot -11.8206 -2.75854
rtoes -10.8998
lfemur -37.1068 23.0885 -3.57449
ltibia 42.4005
lfoot -8.05275 19.1285
ltoes -0.435626
1131
root 10.9746 17.2688 -3.98086 26.9033 -55.1878 -20.4735
lowerback 16.9337 0.679081 -3.67866
upperback 8.52789 -0.235374 -6.43267
thorax -0.390669 -0.268995 -4.6901
lowerneck -11.39 11.4349 3.30896
upperneck -2.94813 14.8928 -4.55307
head 1.58274 7.34545 -1.20608
rclavicle 2.70347e-014 -4.13472e-014
rhumerus 21.3579 53.2038 -84.104
rradius 38.676
rwrist -11.4274
rhand -35.0029 9.45699
rfingers 7.12502
rthumb -8.14761 -20.3659
lclavicle 2.70347e-014 -4.13472e-014
lhumerus 15.5881 -2.21125 88.8531
lradius 49.1068
lwrist 73.674
lhand -29.4087 20.96
lfingers 7.12502
lthumb -2.74637 50.9221
rfemur -24.597 10.4073 29.5436
rtibia 29.292
rfoot -11.4966 -2.14629
rtoes -10.607
lfemur -37.237 23.8216 -3.23554
ltibia 42.9053
lfoot -8.88178 19.2513
ltoes 1.53546
1132
root 10.9886 17.25 -3.99849 29.3002 -56.2223 -22.4717
lowerback 16.5804 0.768403 -3.93459
upperback 8.5173 -0.144067 -6.55138
thorax -0.210864 -0.234593 -4.68406
lowerneck -11.4128 11.621 3.37426
upperneck -3.13782 15.1331 -4.86332
head 1.56637 7.46138 -1.2992
rclavicle -1.90833e-014 6.36111e-014
rhumerus 20.678 52.9369 -84.2272
rradius 38.5111
rwrist -11.0603
rhand -34.6472 8.73722
rfingers 7.12502
rthumb -7.80426 -21.0987
lclavicle -1.90833e-014 6.36111e-014
lhumerus 15.3798 -2.5215 89.2519
lradius 48.8753
lwrist 73.6134
lhand -29.6167 24.1014
lfingers 7.12502
lthumb -2.94733 54.0608
rfemur -25.4354 11.354 30.1333
rtibia 29.2627
rfoot -10.972 -1.71254
rtoes -10.252
lfemur -37.764 25.0998 -2.57685
ltibia 43.4633
lfoot -9.41955 19.3686
ltoes 2.90454
1133
root 10.9975 17.2283 -4.01619 31.9171 -57.2068 -24.4292
lowerback 15.9607 0.855132 -4.25928
upperback 8.44103 -0.0379385 -6.65766
thorax 0.0393728 -0.193224 -4.62355
lowerneck -11.836 11.7257 3.04642
upperneck -2.99061 15.305 -4.76492
head 1.65589 7.54551 -1.1786
rclavicle -6.20208e-014 -6.04305e-014
rhumerus 20.0342 52.5363 -84.2881
rradius 38.4206
rwrist -10.7429
rhand -34.4558 8.29347
rfingers 7.12502
rthumb -7.6195 -21.5493
lclavicle -6.20208e-014 -6.04305e-014
lhumerus 15.146 -2.56263 89.9466
lradius 48.0955
lwrist 72.9864
lhand -28.7819 25.3126
lfingers 7.12502
lthumb -2.14109 55.2816
rfemur -26.4908 12.3015 30.6344
rtibia 29.2323
rfoot -10.5303 -1.16305
rtoes -9.89763
lfemur -38.582 26.5903 -2.16712
ltibia 43.9467
lfoot -9.5182 19.4087
ltoes 2.56315
1134
root 11.0183 17.2228 -4.01099 32.4771 -57.5683 -24.7404
lowerback 16.3222 0.50005 -4.66806
upperback 8.46559 -0.612774 -6.99076
thorax -0.149323 -0.490671 -4.66129
lowerneck -11.88 12.041 3.13226
upperneck -3.01999 15.7186 -4.97997
head 1.69567 7.74814 -1.22642
rclavicle 5.08889e-014 1.90833e-014
rhumerus 19.211 52.5982 -84.7167
rradius 38.4314
rwrist -10.6196
rhand -34.4542 8.09539
rfingers 7.12502
rthumb -7.61799 -21.7474
lclavicle 5.08889e-014 1.90833e-014
lhumerus 14.6925 -2.2128 90.4177
lradius 47.439
lwrist 72.9916
lhand -28.3359 25.7797
lfingers 7.12502
lthumb -1.71028 55.7526
rfemur -26.8461 12.1109 30.6625
rtibia 29.2208
rfoot -10.3161 -0.65606
rtoes -9.68332
lfemur -38.9037 26.782 -2.25206
ltibia 44.2341
lfoot -9.68196 19.5998
ltoes 2.91335
1135
root 11.0473 17.2253 -3.99613 32.015 -57.9278 -24.4726
lowerback 17.3068 0.126596 -5.18133
upperback 8.58771 -1.30136 -7.41634
thorax -0.560327 -0.848718 -4.71665
lowerneck -11.5028 12.4061 3.09113
upperneck -3.37768 16.2162 -5.18911
head 1.546 8.0061 -1.28633
rclavicle 2.8625e-014 9.54166e-014
rhumerus 18.3064 52.7976 -85.0204
rradius 38.5732
rwrist -10.5544
rhand -34.3176 8.18628
rfingers 7.12502
rthumb -7.48614 -21.6613
lclavicle 2.8625e-014 9.54166e-014
lhumerus 14.1128 -2.10725 90.5984
lradius 46.9303
lwrist 73.3334
lhand -27.3297 25.3744
lfingers 7.12502
lthumb -0.738547 55.3529
rfemur -26.6308 11.5988 30.4564
rtibia 29.1809
rfoot -9.98399 -0.166832
rtoes -9.22841
lfemur -38.5778 26.4369 -2.40826
ltibia 44.4052
lfoot -10.075 19.9969
ltoes 4.50868
1136
root 11.0674 17.2203 -3.99507 32.3425 -58.5861 -24.9487
lowerback 17.8411 -0.0757737 -5.68783
upperback 8.73481 -1.72945 -7.80087
thorax -0.692389 -1.08005 -4.77088
lowerneck -11.2926 12.646 3.05555
upperneck -3.69805 16.5395 -5.34551
head 1.42775 8.175 -1.33217
rclavicle -9.22361e-014 2.22639e-014
rhumerus 17.6303 53.0075 -85.064
rradius 38.8374
rwrist -10.6538
rhand -34.1809 8.74998
rfingers 7.12502
rthumb -7.3542 -21.1022
lclavicle -9.22361e-014 2.22639e-014
lhumerus 13.6963 -1.80791 90.9185
lradius 45.7144
lwrist 71.2612
lhand -23.2213 22.3114
lfingers 7.12502
lthumb 3.22939 52.2667
rfemur -26.5146 11.5394 30.4836
rtibia 29.079
rfoot -9.69057 0.422039
rtoes -9.13251
lfemur -38.261 26.6787 -2.30693
ltibia 44.6046
lfoot -10.3913 20.3071
ltoes 5.34464
1137
root 11.0782 17.2095 -4.00308 33.5844 -59.0286 -26.1797
lowerback 17.9621 -0.250072 -5.79654
upperback 8.88253 -2.00256 -8.03919
thorax -0.611061 -1.22428 -4.92062
lowerneck -11.4579 12.7666 3.0896
upperneck -3.74888 16.6934 -5.57481
head 1.47089 8.24628 -1.38632
rclavicle -4.77083e-014 -8.26944e-014
rhumerus 16.9545 52.8775 -85.2268
rradius 38.9219
rwrist -10.5378
rhand -33.8504 8.98516
rfingers 7.12502
rthumb -7.03519 -20.8779
lclavicle -4.77083e-014 -8.26944e-014
lhumerus 13.3852 -1.69572 91.3635
lradius 45.2075
lwrist 70.6437
lhand -22.5448 21.544
lfingers 7.12502
lthumb 3.88266 51.4883
rfemur -26.6276 11.5613 30.9806
rtibia 28.9241
rfoot -9.61728 1.04641
rtoes -10.3556
lfemur -38.3375 27.2493 -1.83816
ltibia 44.936
lfoot -10.4499 20.434
ltoes 4.76013
1138
root 11.0943 17.1916 -4.00303 35.7291 -59.2551 -28.2107
lowerback 17.9745 -0.420787 -5.42516
upperback 8.96003 -2.17345 -8.11737
thorax -0.560001 -1.30168 -5.18568
lowerneck -11.4672 12.9354 2.81453
upperneck -4.09852 16.9411 -5.80374
head 1.36333 8.37613 -1.41147
rclavicle -8.26944e-014 -6.67916e-014
rhumerus 16.3659 52.5881 -85.2111
rradius 38.9047
rwrist -10.2924
rhand -33.4256 8.63753
rfingers 7.12502
rthumb -6.62505 -21.2388
lclavicle -8.26944e-014 -6.67916e-014
lhumerus 13.0494 -2.40702 91.5226
lradius 44.5689
lwrist 71.2747
lhand -22.4092 19.8126
lfingers 7.12502
lthumb 4.01362 49.7546
rfemur -26.9604 11.8255 31.8337
rtibia 28.7539
rfoot -9.41435 1.55532
rtoes -10.8637
lfemur -38.727 27.9825 -1.04138
ltibia 45.3265
lfoot -10.2733 20.6405
ltoes 3.31498
1139
root 11.1166 17.1667 -4.00285 37.7437 -59.5772 -30.1281
lowerback 18.1259 -0.617674 -5.22554
upperback 8.96385 -2.43551 -8.33408
thorax -0.665832 -1.42668 -5.48451
lowerneck -10.9649 13.2237 3.17449
upperneck -4.88907 17.27 -6.53104
head 1.14211 8.54793 -1.72312
rclavicle 3.18055e-014 -1.27222e-014
rhumerus 15.9144 52.6943 -85.1918
rradius 39.0318
rwrist -10.4336
rhand -33.5091 7.78365
rfingers 7.12502
rthumb -6.70569 -22.0902
lclavicle 3.18055e-014 -1.27222e-014
lhumerus 12.635 -3.22454 91.3129
lradius 44.1014
lwrist 72.5927
lhand -23.8472 18.427
lfingers 7.12502
lthumb 2.62497 48.3906
rfemur -27.2857 12.3616 32.467
rtibia 28.5781
rfoot -9.12694 1.92942
rtoes -10.6471
lfemur -39.0327 28.698 -0.414695
ltibia 45.606
lfoot -9.85335 21.0292
ltoes 1.35289
